<svg width="26" height="31" viewBox="0 0 26 31" fill="none" xmlns="http://www.w3.org/2000/svg">
<path d="M2.01 0H1.984C1.86328 0.00247233 1.74402 0.0261037 1.632 0.06975C1.47001 0.131877 1.32759 0.233924 1.21884 0.365781C1.11009 0.497639 1.03879 0.654732 1.012 0.8215C0.98 1.00363 0 6.96531 0 9.6875C0 11.5281 0.884 13.1692 2.26 14.2309C2.76 14.6204 3 15.0428 3 15.3954V16.3641C3 16.399 2.998 16.4339 2.994 16.4688C2.94 16.9725 2.692 19.2374 2.458 21.5663C2.228 23.8622 2 26.3132 2 27.125C2 28.1527 2.42143 29.1383 3.17157 29.865C3.92172 30.5917 4.93913 31 6 31C7.06087 31 8.07828 30.5917 8.82843 29.865C9.57857 29.1383 10 28.1527 10 27.125C10 26.3113 9.772 23.8622 9.542 21.5663C9.37101 19.867 9.19234 18.1685 9.006 16.4707L9 16.3641V15.3954C9 15.0408 9.24 14.6204 9.74 14.2309C10.4448 13.6867 11.0139 12.9956 11.4052 12.209C11.7964 11.4225 11.9997 10.5606 12 9.6875C12 6.9595 11.014 0.970688 10.988 0.819563C10.9586 0.637465 10.8762 0.467275 10.7504 0.32897C10.6246 0.190665 10.4608 0.0899851 10.278 0.03875C10.1941 0.0149664 10.1074 0.00193872 10.02 0H9.98H9.982C9.71552 0.00204484 9.46067 0.106032 9.27299 0.289304C9.0853 0.472575 8.97999 0.720277 8.98 0.978438V8.72844C8.98276 8.85438 8.95988 8.97962 8.91268 9.097C8.86547 9.21439 8.79486 9.32161 8.70488 9.41256C8.6149 9.5035 8.50731 9.57639 8.38826 9.62705C8.2692 9.67772 8.14101 9.70517 8.011 9.70784C7.88099 9.71052 7.75171 9.68835 7.63054 9.64262C7.50938 9.5969 7.39869 9.52849 7.30481 9.44133C7.21093 9.35416 7.1357 9.24993 7.0834 9.13459C7.0311 9.01926 7.00276 8.89507 7 8.76912V0.96875C7 0.711821 6.89464 0.465416 6.70711 0.28374C6.51957 0.102065 6.26522 0 6 0C5.73478 0 5.48043 0.102065 5.29289 0.28374C5.10536 0.465416 5 0.711821 5 0.96875V8.71875L5.002 8.78075C4.99484 9.03511 4.88367 9.27629 4.69294 9.45125C4.50222 9.6262 4.24756 9.72059 3.985 9.71366C3.72244 9.70672 3.47347 9.59902 3.29287 9.41426C3.11227 9.22949 3.01484 8.9828 3.022 8.72844V0.980375C3.022 0.720699 2.91565 0.471629 2.7263 0.287829C2.53694 0.104029 2.27805 0.000513194 2.01 0ZM15 8.71875C15 6.40639 15.9482 4.18875 17.636 2.55366C19.3239 0.91858 21.6131 0 24 0C24.2652 0 24.5196 0.102065 24.7071 0.28374C24.8946 0.465416 25 0.711821 25 0.96875V14.4886L25.04 14.9226C25.1959 16.6635 25.3479 18.4046 25.496 20.1461C25.744 23.0659 26 26.2706 26 27.125C26 28.1527 25.5786 29.1383 24.8284 29.865C24.0783 30.5917 23.0609 31 22 31C20.9391 31 19.9217 30.5917 19.1716 29.865C18.4214 29.1383 18 28.1527 18 27.125C18 26.2725 18.256 23.0659 18.504 20.1461C18.628 18.6717 18.754 17.2457 18.848 16.1898L18.908 15.5H18C17.2044 15.5 16.4413 15.1938 15.8787 14.6488C15.3161 14.1038 15 13.3645 15 12.5938V8.71875Z" fill="#4B4B4B" fill-opacity="0.7"/>
</svg>
