<svg width="31" height="28" viewBox="0 0 31 28" fill="none" xmlns="http://www.w3.org/2000/svg">
<path d="M29.7923 9.33333H25.3099L24.3546 3.89667C24.1621 3.07409 23.7394 2.31652 23.1313 1.7044C22.5233 1.09227 21.7525 0.648427 20.9009 0.42C20.0454 0.157792 19.1542 0.0162926 18.2556 0H12.7689C11.8703 0.0162926 10.9791 0.157792 10.1235 0.42C9.27195 0.648427 8.5012 1.09227 7.89312 1.7044C7.28504 2.31652 6.86232 3.07409 6.66984 3.89667L5.71457 9.33333H1.23214C1.03922 9.33222 0.848754 9.37453 0.676258 9.45683C0.503762 9.53913 0.354116 9.65909 0.239512 9.80693C0.124909 9.95477 0.0485886 10.1263 0.016771 10.3076C-0.0150466 10.4888 -0.00146166 10.6747 0.0564184 10.85L4.66132 25.55C4.89576 26.2601 5.36178 26.8806 5.99167 27.3212C6.62157 27.7618 7.38252 27.9995 8.16398 28H22.8605C23.6377 27.9946 24.3932 27.7545 25.0182 27.3143C25.6432 26.8741 26.1055 26.2563 26.3386 25.55L30.9436 10.85C31.0008 10.6766 31.0148 10.4928 30.9842 10.3133C30.9537 10.1338 30.8796 9.96362 30.7677 9.81628C30.6559 9.66895 30.5095 9.54855 30.3401 9.4647C30.1708 9.38085 29.9832 9.33586 29.7923 9.33333ZM8.21297 9.33333L9.09476 4.27C9.19143 3.85659 9.41567 3.48016 9.73867 3.18911C10.0617 2.89805 10.4687 2.70566 10.9073 2.63667C11.5099 2.45467 12.1369 2.35433 12.7689 2.33333H18.2556C18.8949 2.352 19.5293 2.45467 20.1416 2.63667C20.5803 2.70566 20.9873 2.89805 21.3103 3.18911C21.6333 3.48016 21.8575 3.85659 21.9542 4.27L22.8115 9.33333H8.115H8.21297Z" fill="#4B4B4B" fill-opacity="0.7"/>
</svg>
